# MagicaVoxel @ Ephtracy

# material
mtllib Ceiling.mtl
usemtl palette

# normals
vn -1 0 0
vn 1 0 0
vn 0 0 1
vn 0 0 -1
vn 0 -1 0
vn 0 1 0

# texcoords
vt 0.0136719 0.5
vt 0.0175781 0.5
vt 0.0566406 0.5

# verts
v -63 11 15
v -63 11 14
v -63 11 -15
v -63 12 14
v -63 12 13
v -63 12 -14
v -63 12 -15
v -63 13 -13
v -63 13 -14
v -63 14 13
v -63 14 12
v -63 14 -12
v -63 14 -13
v -63 15 12
v -63 15 -12
v -63 16 15
v -63 16 -15
v -50 11 12
v -50 11 -12
v -50 14 12
v -50 14 -12
v -50 15 12
v -50 15 -12
v 49 11 12
v 49 11 -12
v 49 14 12
v 49 14 7
v 49 14 6
v 49 14 -6
v 49 14 -7
v 49 14 -12
v 49 15 12
v 49 15 7
v 49 15 6
v 49 15 -6
v 49 15 -7
v 49 15 -12
v 60 13 13
v 60 13 12
v 60 14 13
v 60 14 12
v 61 13 12
v 61 13 -13
v 61 14 12
v 61 14 7
v 61 14 6
v 61 14 -6
v 61 14 -7
v 61 14 -12
v 61 14 -13
v 61 15 12
v 61 15 7
v 61 15 6
v 61 15 -6
v 61 15 -7
v 61 15 -12
v 62 11 14
v 62 11 -15
v 62 12 14
v 62 12 13
v 62 12 -14
v 62 12 -15
v 62 13 13
v 62 13 -13
v 62 13 -14
v -62 11 14
v -62 11 -15
v -62 12 14
v -62 12 13
v -62 12 -14
v -62 12 -15
v -62 13 -13
v -62 13 -14
v -62 14 13
v -62 14 12
v -62 14 7
v -62 14 6
v -62 14 -6
v -62 14 -7
v -62 14 -12
v -62 14 -13
v -62 15 12
v -62 15 7
v -62 15 6
v -62 15 -6
v -62 15 -7
v -62 15 -12
v -51 14 7
v -51 14 6
v -51 14 -6
v -51 14 -7
v -51 15 7
v -51 15 6
v -51 15 -6
v -51 15 -7
v -49 11 12
v -49 11 -12
v -49 14 12
v -49 14 7
v -49 14 6
v -49 14 -6
v -49 14 -7
v -49 14 -12
v -49 15 12
v -49 15 7
v -49 15 6
v -49 15 -6
v -49 15 -7
v -49 15 -12
v 50 11 12
v 50 11 -12
v 50 14 12
v 50 14 7
v 50 14 6
v 50 14 -6
v 50 14 -7
v 50 14 -12
v 50 15 12
v 50 15 7
v 50 15 6
v 50 15 -6
v 50 15 -7
v 50 15 -12
v 63 11 15
v 63 11 14
v 63 11 -15
v 63 12 14
v 63 12 13
v 63 12 -14
v 63 12 -15
v 63 13 -13
v 63 13 -14
v 63 14 13
v 63 14 12
v 63 14 -12
v 63 14 -13
v 63 15 12
v 63 15 -12
v 63 16 15
v 63 16 -15
v -63 11 15
v -63 16 15
v 63 11 15
v 63 16 15
v -50 11 12
v -50 14 12
v -49 11 12
v -49 14 12
v 49 11 12
v 49 14 12
v 50 11 12
v 50 14 12
v -62 14 7
v -62 15 7
v -51 14 7
v -51 15 7
v -49 14 7
v -49 15 7
v 49 14 7
v 49 15 7
v 50 14 7
v 50 15 7
v 61 14 7
v 61 15 7
v -62 14 -6
v -62 15 -6
v -51 14 -6
v -51 15 -6
v -49 14 -6
v -49 15 -6
v 49 14 -6
v 49 15 -6
v 50 14 -6
v 50 15 -6
v 61 14 -6
v 61 15 -6
v -62 14 -12
v -62 15 -12
v -50 14 -12
v -50 15 -12
v -49 14 -12
v -49 15 -12
v 49 14 -12
v 49 15 -12
v 50 14 -12
v 50 15 -12
v 61 14 -12
v 61 15 -12
v -62 13 -13
v -62 14 -13
v 61 13 -13
v 61 14 -13
v -62 12 -14
v -62 13 -14
v 62 12 -14
v 62 13 -14
v -62 11 14
v -62 12 14
v 62 11 14
v 62 12 14
v -62 12 13
v -62 14 13
v 60 13 13
v 60 14 13
v 62 12 13
v 62 13 13
v -62 14 12
v -62 15 12
v -50 14 12
v -50 15 12
v -49 14 12
v -49 15 12
v 49 14 12
v 49 15 12
v 50 14 12
v 50 15 12
v 60 13 12
v 60 14 12
v 61 13 12
v 61 14 12
v 61 15 12
v -62 14 6
v -62 15 6
v -51 14 6
v -51 15 6
v -49 14 6
v -49 15 6
v 49 14 6
v 49 15 6
v 50 14 6
v 50 15 6
v 61 14 6
v 61 15 6
v -62 14 -7
v -62 15 -7
v -51 14 -7
v -51 15 -7
v -49 14 -7
v -49 15 -7
v 49 14 -7
v 49 15 -7
v 50 14 -7
v 50 15 -7
v 61 14 -7
v 61 15 -7
v -50 11 -12
v -50 14 -12
v -49 11 -12
v -49 14 -12
v 49 11 -12
v 49 14 -12
v 50 11 -12
v 50 14 -12
v -63 11 -15
v -63 12 -15
v -63 16 -15
v -62 11 -15
v -62 12 -15
v 62 11 -15
v 62 12 -15
v 63 11 -15
v 63 12 -15
v 63 16 -15
v -63 11 15
v 63 11 15
v -63 11 14
v -62 11 14
v 62 11 14
v 63 11 14
v -50 11 12
v -49 11 12
v 49 11 12
v 50 11 12
v -50 11 -12
v -49 11 -12
v 49 11 -12
v 50 11 -12
v -63 11 -15
v -62 11 -15
v 62 11 -15
v 63 11 -15
v -62 12 14
v 62 12 14
v -62 12 13
v 62 12 13
v -62 12 -14
v 62 12 -14
v -62 12 -15
v 62 12 -15
v 60 13 13
v 62 13 13
v 60 13 12
v 61 13 12
v -62 13 -13
v 61 13 -13
v 62 13 -13
v -62 13 -14
v 62 13 -14
v -62 14 13
v 60 14 13
v -62 14 12
v -50 14 12
v -49 14 12
v 49 14 12
v 50 14 12
v 60 14 12
v -62 14 7
v -51 14 7
v -49 14 7
v 49 14 7
v 50 14 7
v 61 14 7
v -62 14 6
v -51 14 6
v -49 14 6
v 49 14 6
v 50 14 6
v 61 14 6
v -62 14 -6
v -51 14 -6
v -49 14 -6
v 49 14 -6
v 50 14 -6
v 61 14 -6
v -62 14 -7
v -51 14 -7
v -49 14 -7
v 49 14 -7
v 50 14 -7
v 61 14 -7
v -62 14 -12
v -50 14 -12
v -49 14 -12
v 49 14 -12
v 50 14 -12
v 61 14 -12
v -62 14 -13
v 61 14 -13
v -62 15 12
v -50 15 12
v -49 15 12
v 49 15 12
v 50 15 12
v 61 15 12
v -62 15 7
v -51 15 7
v -49 15 7
v 49 15 7
v 50 15 7
v 61 15 7
v -62 15 6
v -51 15 6
v -49 15 6
v 49 15 6
v 50 15 6
v 61 15 6
v -62 15 -6
v -51 15 -6
v -49 15 -6
v 49 15 -6
v 50 15 -6
v 61 15 -6
v -62 15 -7
v -51 15 -7
v -49 15 -7
v 49 15 -7
v 50 15 -7
v 61 15 -7
v -62 15 -12
v -50 15 -12
v -49 15 -12
v 49 15 -12
v 50 15 -12
v 61 15 -12
v -63 16 15
v 63 16 15
v -63 16 -15
v 63 16 -15

# faces
f 4/2/1 2/2/1 1/2/1
f 4/1/1 3/1/1 2/1/1
f 5/1/1 3/1/1 4/1/1
f 6/1/1 3/1/1 5/1/1
f 7/1/1 3/1/1 6/1/1
f 8/1/1 6/1/1 5/1/1
f 9/2/1 7/2/1 6/2/1
f 9/1/1 6/1/1 8/1/1
f 10/2/1 5/2/1 4/2/1
f 10/1/1 8/1/1 5/1/1
f 11/1/1 8/1/1 10/1/1
f 12/1/1 8/1/1 11/1/1
f 13/2/1 9/2/1 8/2/1
f 13/1/1 8/1/1 12/1/1
f 14/1/1 12/1/1 11/1/1
f 14/2/1 11/2/1 10/2/1
f 15/2/1 13/2/1 12/2/1
f 15/1/1 12/1/1 14/1/1
f 16/2/1 4/2/1 1/2/1
f 16/2/1 10/2/1 4/2/1
f 16/2/1 15/2/1 14/2/1
f 16/2/1 14/2/1 10/2/1
f 17/2/1 13/2/1 15/2/1
f 17/2/1 15/2/1 16/2/1
f 17/2/1 7/2/1 9/2/1
f 17/2/1 9/2/1 13/2/1
f 20/3/1 19/3/1 18/3/1
f 21/3/1 19/3/1 20/3/1
f 22/3/1 21/3/1 20/3/1
f 23/3/1 21/3/1 22/3/1
f 26/3/1 25/3/1 24/3/1
f 27/3/1 25/3/1 26/3/1
f 28/3/1 25/3/1 27/3/1
f 29/3/1 25/3/1 28/3/1
f 30/3/1 25/3/1 29/3/1
f 31/3/1 25/3/1 30/3/1
f 32/3/1 27/3/1 26/3/1
f 33/3/1 27/3/1 32/3/1
f 34/3/1 29/3/1 28/3/1
f 35/3/1 29/3/1 34/3/1
f 36/3/1 31/3/1 30/3/1
f 37/3/1 31/3/1 36/3/1
f 40/1/1 39/1/1 38/1/1
f 41/1/1 39/1/1 40/1/1
f 44/1/1 43/1/1 42/1/1
f 45/1/1 43/1/1 44/1/1
f 46/1/1 43/1/1 45/1/1
f 47/1/1 43/1/1 46/1/1
f 48/1/1 43/1/1 47/1/1
f 49/1/1 43/1/1 48/1/1
f 50/1/1 43/1/1 49/1/1
f 51/1/1 45/1/1 44/1/1
f 52/1/1 45/1/1 51/1/1
f 53/1/1 47/1/1 46/1/1
f 54/1/1 47/1/1 53/1/1
f 55/1/1 49/1/1 48/1/1
f 56/1/1 49/1/1 55/1/1
f 59/1/1 58/1/1 57/1/1
f 60/1/1 58/1/1 59/1/1
f 61/1/1 58/1/1 60/1/1
f 62/1/1 58/1/1 61/1/1
f 63/1/1 61/1/1 60/1/1
f 64/1/1 61/1/1 63/1/1
f 65/1/1 61/1/1 64/1/1
f 66/1/2 67/1/2 68/1/2
f 68/1/2 67/1/2 69/1/2
f 69/1/2 67/1/2 70/1/2
f 70/1/2 67/1/2 71/1/2
f 69/1/2 70/1/2 72/1/2
f 72/1/2 70/1/2 73/1/2
f 69/1/2 72/1/2 74/1/2
f 74/1/2 72/1/2 75/1/2
f 75/1/2 72/1/2 76/1/2
f 76/1/2 72/1/2 77/1/2
f 77/1/2 72/1/2 78/1/2
f 78/1/2 72/1/2 79/1/2
f 79/1/2 72/1/2 80/1/2
f 80/1/2 72/1/2 81/1/2
f 75/1/2 76/1/2 82/1/2
f 82/1/2 76/1/2 83/1/2
f 77/1/2 78/1/2 84/1/2
f 84/1/2 78/1/2 85/1/2
f 79/1/2 80/1/2 86/1/2
f 86/1/2 80/1/2 87/1/2
f 88/1/2 89/1/2 92/1/2
f 92/1/2 89/1/2 93/1/2
f 90/1/2 91/1/2 94/1/2
f 94/1/2 91/1/2 95/1/2
f 96/3/2 97/3/2 98/3/2
f 98/3/2 97/3/2 99/3/2
f 99/3/2 97/3/2 100/3/2
f 100/3/2 97/3/2 101/3/2
f 101/3/2 97/3/2 102/3/2
f 102/3/2 97/3/2 103/3/2
f 98/3/2 99/3/2 104/3/2
f 104/3/2 99/3/2 105/3/2
f 100/3/2 101/3/2 106/3/2
f 106/3/2 101/3/2 107/3/2
f 102/3/2 103/3/2 108/3/2
f 108/3/2 103/3/2 109/3/2
f 110/3/2 111/3/2 112/3/2
f 112/3/2 111/3/2 113/3/2
f 113/3/2 111/3/2 114/3/2
f 114/3/2 111/3/2 115/3/2
f 115/3/2 111/3/2 116/3/2
f 116/3/2 111/3/2 117/3/2
f 112/3/2 113/3/2 118/3/2
f 118/3/2 113/3/2 119/3/2
f 114/3/2 115/3/2 120/3/2
f 120/3/2 115/3/2 121/3/2
f 116/3/2 117/3/2 122/3/2
f 122/3/2 117/3/2 123/3/2
f 124/2/2 125/2/2 127/2/2
f 125/1/2 126/1/2 127/1/2
f 127/1/2 126/1/2 128/1/2
f 128/1/2 126/1/2 129/1/2
f 129/1/2 126/1/2 130/1/2
f 128/1/2 129/1/2 131/1/2
f 129/2/2 130/2/2 132/2/2
f 131/1/2 129/1/2 132/1/2
f 127/2/2 128/2/2 133/2/2
f 128/1/2 131/1/2 133/1/2
f 133/1/2 131/1/2 134/1/2
f 134/1/2 131/1/2 135/1/2
f 131/2/2 132/2/2 136/2/2
f 135/1/2 131/1/2 136/1/2
f 134/1/2 135/1/2 137/1/2
f 133/2/2 134/2/2 137/2/2
f 135/2/2 136/2/2 138/2/2
f 137/1/2 135/1/2 138/1/2
f 124/2/2 127/2/2 139/2/2
f 127/2/2 133/2/2 139/2/2
f 137/2/2 138/2/2 139/2/2
f 133/2/2 137/2/2 139/2/2
f 138/2/2 136/2/2 140/2/2
f 139/2/2 138/2/2 140/2/2
f 132/2/2 130/2/2 140/2/2
f 136/2/2 132/2/2 140/2/2
f 143/2/3 142/2/3 141/2/3
f 144/2/3 142/2/3 143/2/3
f 147/3/3 146/3/3 145/3/3
f 148/3/3 146/3/3 147/3/3
f 151/3/3 150/3/3 149/3/3
f 152/3/3 150/3/3 151/3/3
f 155/1/3 154/1/3 153/1/3
f 156/1/3 154/1/3 155/1/3
f 159/1/3 158/1/3 157/1/3
f 160/1/3 158/1/3 159/1/3
f 163/1/3 162/1/3 161/1/3
f 164/1/3 162/1/3 163/1/3
f 167/1/3 166/1/3 165/1/3
f 168/1/3 166/1/3 167/1/3
f 171/1/3 170/1/3 169/1/3
f 172/1/3 170/1/3 171/1/3
f 175/1/3 174/1/3 173/1/3
f 176/1/3 174/1/3 175/1/3
f 179/2/3 178/2/3 177/2/3
f 180/2/3 178/2/3 179/2/3
f 183/2/3 182/2/3 181/2/3
f 184/2/3 182/2/3 183/2/3
f 187/2/3 186/2/3 185/2/3
f 188/2/3 186/2/3 187/2/3
f 191/2/3 190/2/3 189/2/3
f 192/2/3 190/2/3 191/2/3
f 195/2/3 194/2/3 193/2/3
f 196/2/3 194/2/3 195/2/3
f 197/2/4 198/2/4 199/2/4
f 199/2/4 198/2/4 200/2/4
f 201/2/4 202/2/4 203/2/4
f 203/2/4 202/2/4 204/2/4
f 201/2/4 203/2/4 205/2/4
f 205/2/4 203/2/4 206/2/4
f 207/2/4 208/2/4 209/2/4
f 209/2/4 208/2/4 210/2/4
f 211/2/4 212/2/4 213/2/4
f 213/2/4 212/2/4 214/2/4
f 215/2/4 216/2/4 218/2/4
f 217/1/4 218/1/4 219/1/4
f 218/2/4 216/2/4 220/2/4
f 219/1/4 218/1/4 220/1/4
f 220/2/4 216/2/4 221/2/4
f 222/1/4 223/1/4 224/1/4
f 224/1/4 223/1/4 225/1/4
f 226/1/4 227/1/4 228/1/4
f 228/1/4 227/1/4 229/1/4
f 230/1/4 231/1/4 232/1/4
f 232/1/4 231/1/4 233/1/4
f 234/1/4 235/1/4 236/1/4
f 236/1/4 235/1/4 237/1/4
f 238/1/4 239/1/4 240/1/4
f 240/1/4 239/1/4 241/1/4
f 242/1/4 243/1/4 244/1/4
f 244/1/4 243/1/4 245/1/4
f 246/3/4 247/3/4 248/3/4
f 248/3/4 247/3/4 249/3/4
f 250/3/4 251/3/4 252/3/4
f 252/3/4 251/3/4 253/3/4
f 254/1/4 255/1/4 257/1/4
f 255/2/4 256/2/4 258/2/4
f 257/1/4 255/1/4 258/1/4
f 258/2/4 256/2/4 260/2/4
f 259/1/4 260/1/4 261/1/4
f 260/2/4 256/2/4 262/2/4
f 261/1/4 260/1/4 262/1/4
f 262/2/4 256/2/4 263/2/4
f 266/2/5 265/2/5 264/2/5
f 267/2/5 265/2/5 266/2/5
f 268/2/5 265/2/5 267/2/5
f 269/2/5 265/2/5 268/2/5
f 274/3/5 271/3/5 270/3/5
f 275/3/5 271/3/5 274/3/5
f 276/3/5 273/3/5 272/3/5
f 277/3/5 273/3/5 276/3/5
f 278/1/5 267/1/5 266/1/5
f 279/1/5 267/1/5 278/1/5
f 280/1/5 269/1/5 268/1/5
f 281/1/5 269/1/5 280/1/5
f 284/2/5 283/2/5 282/2/5
f 285/2/5 283/2/5 284/2/5
f 288/2/5 287/2/5 286/2/5
f 289/2/5 287/2/5 288/2/5
f 292/1/5 291/1/5 290/1/5
f 293/1/5 291/1/5 292/1/5
f 295/1/5 291/1/5 293/1/5
f 296/1/5 291/1/5 295/1/5
f 297/2/5 295/2/5 294/2/5
f 297/2/5 296/2/5 295/2/5
f 298/2/5 296/2/5 297/2/5
f 301/2/5 300/2/5 299/2/5
f 302/2/5 300/2/5 301/2/5
f 303/2/5 300/2/5 302/2/5
f 304/2/5 300/2/5 303/2/5
f 305/2/5 300/2/5 304/2/5
f 306/2/5 300/2/5 305/2/5
f 313/1/5 308/1/5 307/1/5
f 314/1/5 308/1/5 313/1/5
f 315/1/5 310/1/5 309/1/5
f 316/1/5 310/1/5 315/1/5
f 317/1/5 312/1/5 311/1/5
f 318/1/5 312/1/5 317/1/5
f 325/1/5 320/1/5 319/1/5
f 326/1/5 320/1/5 325/1/5
f 327/1/5 322/1/5 321/1/5
f 328/1/5 322/1/5 327/1/5
f 329/1/5 324/1/5 323/1/5
f 330/1/5 324/1/5 329/1/5
f 337/2/5 332/2/5 331/2/5
f 337/2/5 336/2/5 335/2/5
f 337/2/5 335/2/5 334/2/5
f 337/2/5 334/2/5 333/2/5
f 337/2/5 333/2/5 332/2/5
f 338/2/5 336/2/5 337/2/5
f 345/2/5 340/2/5 339/2/5
f 346/2/5 340/2/5 345/2/5
f 347/2/5 342/2/5 341/2/5
f 348/2/5 342/2/5 347/2/5
f 349/2/5 344/2/5 343/2/5
f 350/2/5 344/2/5 349/2/5
f 352/2/5 340/2/5 346/2/5
f 357/2/5 352/2/5 351/2/5
f 358/2/5 340/2/5 352/2/5
f 358/2/5 352/2/5 357/2/5
f 359/2/5 354/2/5 353/2/5
f 360/2/5 354/2/5 359/2/5
f 361/2/5 356/2/5 355/2/5
f 362/2/5 356/2/5 361/2/5
f 364/2/5 340/2/5 358/2/5
f 369/2/5 364/2/5 363/2/5
f 370/2/5 340/2/5 364/2/5
f 370/2/5 364/2/5 369/2/5
f 371/2/5 366/2/5 365/2/5
f 372/2/5 366/2/5 371/2/5
f 373/2/5 368/2/5 367/2/5
f 374/2/5 368/2/5 373/2/5
f 375/2/6 376/2/6 377/2/6
f 377/2/6 376/2/6 378/2/6
